<?xml version="1.0" standalone="no"?>
<!DOCTYPE svg PUBLIC "-//W3C//DTD SVG 20010904//EN"
 "http://www.w3.org/TR/2001/REC-SVG-20010904/DTD/svg10.dtd">
<svg version="1.0" xmlns="http://www.w3.org/2000/svg"
 width="500.000000pt" height="500.000000pt" viewBox="0 0 500.000000 500.000000"
 preserveAspectRatio="xMidYMid meet">

<g transform="translate(0.000000,500.000000) scale(0.100000,-0.100000)"
fill="#000000" stroke="none">
<path d="M0 2500 l0 -2500 2500 0 2500 0 0 2500 0 2500 -2500 0 -2500 0 0
-2500z m1190 589 c0 -11 -24 -79 -54 -152 -61 -148 -123 -324 -155 -440 -37
-129 -70 -288 -64 -303 11 -30 34 -11 69 59 197 392 412 704 543 789 60 37 92
36 126 -4 27 -32 27 -36 22 -124 -14 -230 -160 -485 -321 -560 -63 -29 -76
-30 -110 -3 -23 18 -26 28 -26 79 0 48 5 64 25 88 41 49 115 68 115 29 0 -7
-16 -28 -35 -47 -34 -33 -46 -72 -24 -85 51 -32 204 130 269 285 46 110 71
240 54 284 -4 10 -18 16 -36 16 -62 0 -271 -252 -357 -431 -15 -30 -41 -75
-58 -100 -17 -24 -77 -132 -133 -239 -120 -226 -135 -250 -160 -250 -31 0 -43
35 -35 109 18 180 80 434 160 655 59 164 133 336 152 358 18 21 33 15 33 -13z
m2358 3 c4 -29 -27 -110 -84 -217 -47 -88 -98 -243 -143 -435 -44 -185 -55
-279 -46 -384 12 -136 11 -159 -3 -163 -7 -3 -20 12 -30 34 -14 32 -17 66 -16
208 1 94 6 205 12 247 11 74 9 108 -8 108 -4 0 -40 -38 -81 -85 -40 -46 -88
-92 -106 -102 -33 -18 -33 -18 -58 10 -29 31 -31 31 -65 12 -44 -25 -95 -19
-127 15 -15 17 -35 30 -44 30 -9 0 -39 -20 -67 -45 -61 -55 -88 -58 -108 -10
-7 19 -14 46 -14 60 0 30 -24 43 -46 24 -9 -7 -43 -59 -75 -115 -66 -111 -88
-138 -116 -132 -15 3 -19 16 -23 75 -3 40 -10 77 -15 82 -7 7 -27 0 -64 -25
-196 -132 -301 -107 -301 73 0 47 -19 61 -62 44 -24 -9 -35 -28 -58 -103 -6
-21 -25 -49 -41 -63 -42 -35 -83 -33 -121 5 -28 29 -30 35 -26 93 6 102 78
217 135 217 28 0 40 -24 23 -45 -18 -22 -3 -35 43 -35 64 0 161 39 218 87 63
54 114 66 141 33 46 -56 -5 -152 -119 -227 -60 -38 -72 -75 -30 -94 41 -19
110 24 229 139 101 98 109 110 144 194 37 88 67 138 84 138 21 0 16 -37 -14
-117 -41 -105 -55 -183 -34 -183 7 0 40 27 73 60 85 86 108 80 122 -30 9 -76
26 -86 73 -46 53 44 69 44 109 -3 51 -58 73 -56 157 21 37 34 84 82 105 107
58 74 93 97 119 81 8 -5 22 -4 32 1 30 16 137 184 170 267 39 99 83 185 104
206 22 23 48 16 52 -12z m290 -8 c6 -10 6 -33 0 -58 -11 -52 -119 -272 -194
-396 -68 -112 -96 -194 -120 -348 -13 -90 -14 -115 -4 -127 30 -36 55 -12 175
165 137 202 174 248 218 269 52 25 65 26 89 4 52 -47 -21 -181 -131 -238 -54
-27 -49 -95 7 -95 34 0 138 69 229 151 93 85 121 100 131 72 5 -16 -104 -131
-179 -189 -130 -100 -212 -120 -271 -64 -17 17 -37 30 -44 30 -8 0 -35 -28
-62 -62 -103 -135 -144 -168 -181 -149 -45 24 -49 83 -22 346 17 167 182 549
288 666 38 42 57 48 71 23z"/>
<path d="M1686 2398 c-25 -40 -27 -74 -8 -98 15 -19 22 -21 39 -12 29 16 36
55 19 97 -17 41 -30 44 -50 13z"/>
</g>
</svg>
